<?xml version="1.0" encoding="utf-8"?>
<!-- Generator: Adobe Illustrator 15.0.2, SVG Export Plug-In . SVG Version: 6.00 Build 0)  -->
<!DOCTYPE svg PUBLIC "-//W3C//DTD SVG 1.1//EN" "http://www.w3.org/Graphics/SVG/1.1/DTD/svg11.dtd">
<svg version="1.1" id="Layer_1" xmlns="http://www.w3.org/2000/svg" xmlns:xlink="http://www.w3.org/1999/xlink" x="0px" y="0px"
	 width="22px" height="22px" viewBox="0 0 22 22" enable-background="new 0 0 22 22" xml:space="preserve">
<path fill="#494949" d="M14.658,5.805h2.727l-1.275,6.908c-0.115,0.493-0.378,1.596,0.203,1.596c1.22,0,2.7-1.307,2.7-4.414
	c0-4.645-3.194-7.024-7.606-7.024c-4.818,0-7.896,3.396-7.896,8.159c0,5.078,3.484,8.1,8.389,8.1c2.179,0,4.066-0.641,5.486-1.715
	h2.847c-2.061,2.847-5.022,4.387-8.563,4.387c-6.184,0-11.264-4.472-11.264-10.771c0-6.185,4.963-10.83,11.09-10.83
	c5.109,0,10.102,3.398,10.102,8.77c0,6.646-5.459,8.389-7.17,8.389c-1.074,0-1.771-0.494-1.801-1.422h-0.057
	c-0.582,0.783-1.482,1.451-2.787,1.451c-2.498,0-4.791-2.38-4.791-5.256c0-3.396,2.293-6.619,5.836-6.619
	c1.479,0,2.699,0.494,3.569,1.684L14.658,5.805z M13.554,10.999c0-1.393-0.898-2.35-2.292-2.35c-1.684,0-2.876,1.508-2.876,3.017
	c0,1.336,0.785,2.38,2.208,2.38C12.393,14.046,13.554,12.654,13.554,10.999z"/>
</svg>
