<?xml version="1.0" encoding="utf-8"?>
<!-- Generator: Adobe Illustrator 15.0.2, SVG Export Plug-In . SVG Version: 6.00 Build 0)  -->
<!DOCTYPE svg PUBLIC "-//W3C//DTD SVG 1.1//EN" "http://www.w3.org/Graphics/SVG/1.1/DTD/svg11.dtd">
<svg version="1.1" id="Layer_1" xmlns="http://www.w3.org/2000/svg" xmlns:xlink="http://www.w3.org/1999/xlink" x="0px" y="0px"
	 width="23.666px" height="19.199px" viewBox="0 0 23.666 19.199" enable-background="new 0 0 23.666 19.199" xml:space="preserve">
<path fill="#494949" d="M23.666,2.271c-0.87,0.387-1.804,0.646-2.783,0.764c0.999-0.6,1.768-1.549,2.13-2.682
	c-0.938,0.556-1.974,0.959-3.077,1.176C19.05,0.588,17.792,0,16.397,0c-2.678,0-4.848,2.169-4.848,4.846
	c0,0.381,0.043,0.75,0.126,1.105C7.647,5.748,4.075,3.819,1.684,0.887C1.267,1.603,1.028,2.436,1.028,3.322
	c0,1.682,0.855,3.167,2.156,4.035C2.391,7.333,1.642,7.114,0.989,6.752c-0.001,0.02-0.001,0.04-0.001,0.061
	c0,2.349,1.673,4.308,3.889,4.753c-0.405,0.11-0.834,0.169-1.276,0.169c-0.312,0-0.616-0.029-0.912-0.086
	c0.617,1.926,2.406,3.326,4.527,3.367c-1.658,1.299-3.748,2.074-6.02,2.074c-0.391,0-0.777-0.023-1.157-0.068
	c2.146,1.375,4.694,2.178,7.431,2.178c8.916,0,13.791-7.386,13.791-13.791c0-0.21-0.003-0.418-0.014-0.627
	C22.195,4.099,23.016,3.244,23.666,2.271z"/>
</svg>
