<?xml version="1.0" encoding="utf-8"?>
<!-- Generator: Adobe Illustrator 15.0.2, SVG Export Plug-In . SVG Version: 6.00 Build 0)  -->
<!DOCTYPE svg PUBLIC "-//W3C//DTD SVG 1.1//EN" "http://www.w3.org/Graphics/SVG/1.1/DTD/svg11.dtd">
<svg version="1.1" id="Layer_1" xmlns="http://www.w3.org/2000/svg" xmlns:xlink="http://www.w3.org/1999/xlink" x="0px" y="0px"
	 width="58px" height="135px" viewBox="0 0 58 135" enable-background="new 0 0 58 135" xml:space="preserve">
<path fill="#2AA7DB" d="M29,86.236v-0.059v-0.004c-1,0-3,1.408-3,3.146v38.637c0,3.699-3.305,6.699-7,6.699c-3.703,0-7-3-7-6.699
	V89.32v-9.338v-31.59c0-0.615-0.382-1.119-1-1.119c-0.617,0-1,0.504-1,1.119v36.664c0,2.637-1.969,4.771-4.601,4.771
	c-2.639,0-4.687-2.135-4.687-4.771L0.378,49.357c0.04-4.895,0.882-11.715,4.117-17.029C6.958,28.281,13,22.998,19,21.283V9.207
	C19,4.002,24.234,0,29.44,0H29.26C34.466,0,39,4.002,39,9.207v12.076c5,1.715,12.264,6.998,14.728,11.045
	c3.235,5.314,4.262,12.135,4.301,17.029l-0.39,35.699c0,2.637-2.149,4.771-4.788,4.771c-2.631,0-4.851-2.135-4.851-4.771V48.393
	c0-0.615-0.383-1.119-1-1.119c-0.618,0-1,0.504-1,1.119v31.59v9.338v38.637c0,3.699-3.298,6.699-7,6.699c-3.695,0-7-3-7-6.699V89.32
	c0-1.738-1-3.146-3-3.146v0.004V86.236z"/>
<rect x="14.327" y="25.758" fill="#FFFFFF" width="30.483" height="59.631"/>
<path fill="#26303A" d="M40.75,21.732H17.603c-2.838,0-5.143,2.301-5.143,5.145V82.23c0,2.838,2.305,5.143,5.143,5.143H40.75
	c2.842,0,5.146-2.305,5.146-5.143V26.877C45.896,24.033,43.592,21.732,40.75,21.732z M26.649,27.188h5.062
	c0.375,0,0.68,0.311,0.68,0.688s-0.305,0.686-0.68,0.686h-5.062c-0.381,0-0.687-0.309-0.687-0.686S26.269,27.188,26.649,27.188z
	 M23.702,26.928c0.448,0,0.813,0.367,0.813,0.816c0,0.451-0.365,0.816-0.813,0.816c-0.453,0-0.819-0.365-0.819-0.816
	C22.883,27.295,23.249,26.928,23.702,26.928z M29.178,84.598c-1.774,0-3.215-1.441-3.215-3.217c0-1.773,1.44-3.213,3.215-3.213
	c1.775,0,3.213,1.439,3.213,3.213C32.391,83.156,30.953,84.598,29.178,84.598z M43.322,75.877H15.034v-42.65h28.288V75.877z"/>
<path fill="#26303A" d="M21.973,49.158c0.688,0,1.242,0.113,1.664,0.338c0.421,0.225,0.749,0.545,0.982,0.963
	c0.233,0.416,0.393,0.918,0.475,1.506c0.083,0.586,0.124,1.242,0.124,1.967c0,0.861-0.054,1.611-0.158,2.248
	c-0.105,0.637-0.287,1.162-0.543,1.574c-0.257,0.412-0.601,0.721-1.032,0.922c-0.431,0.201-0.976,0.303-1.636,0.303h-3.122v-9.82
	H21.973z M21.588,57.52c0.348,0,0.627-0.059,0.838-0.178s0.378-0.316,0.502-0.592s0.207-0.637,0.248-1.086s0.062-1.008,0.062-1.678
	c0-0.559-0.019-1.051-0.055-1.473c-0.037-0.42-0.113-0.771-0.227-1.051c-0.115-0.279-0.285-0.49-0.509-0.633
	c-0.226-0.143-0.525-0.213-0.901-0.213h-0.839v6.902H21.588z"/>
<path fill="#26303A" d="M30.539,49.158l2.6,9.82h-2.062L30.622,56.9h-2.613l-0.454,2.078h-2.062l2.6-9.82H30.539z M30.277,55.279
	l-0.948-4.416h-0.027l-0.949,4.416H30.277z"/>
<path fill="#26303A" d="M35.339,56.008c0,0.246,0.016,0.475,0.048,0.68c0.032,0.207,0.092,0.385,0.179,0.537
	c0.087,0.15,0.206,0.27,0.357,0.357s0.342,0.131,0.57,0.131c0.238,0,0.431-0.043,0.578-0.131c0.146-0.088,0.264-0.207,0.351-0.357
	c0.087-0.152,0.146-0.33,0.179-0.537c0.032-0.205,0.048-0.434,0.048-0.68v-6.85h1.98v6.85c0,0.623-0.087,1.139-0.262,1.547
	c-0.174,0.408-0.408,0.73-0.701,0.969s-0.628,0.398-1.004,0.482c-0.376,0.082-0.766,0.123-1.169,0.123s-0.792-0.037-1.169-0.109
	c-0.376-0.074-0.71-0.223-1.003-0.447c-0.294-0.225-0.528-0.543-0.701-0.955c-0.175-0.414-0.262-0.949-0.262-1.609v-6.85h1.98
	V56.008z"/>
</svg>
