<?xml version="1.0" encoding="utf-8"?>
<!-- Generator: Adobe Illustrator 15.0.2, SVG Export Plug-In . SVG Version: 6.00 Build 0)  -->
<!DOCTYPE svg PUBLIC "-//W3C//DTD SVG 1.1//EN" "http://www.w3.org/Graphics/SVG/1.1/DTD/svg11.dtd">
<svg version="1.1" id="Layer_1" xmlns="http://www.w3.org/2000/svg" xmlns:xlink="http://www.w3.org/1999/xlink" x="0px" y="0px"
	 width="116.691px" height="108.95px" viewBox="0 0 116.691 108.95" enable-background="new 0 0 116.691 108.95"
	 xml:space="preserve">
<path fill="#2AA7DB" d="M31.896,96.276c-0.704,0-1.225-0.188-1.206-0.91C31.104,95.143,31.883,95.619,31.896,96.276z"/>
<path fill="#2AA7DB" d="M26.776,9.497c0.672,0.271-0.138,0.995-0.301,1.352c0.079,0.339,0.841,0.756,1.061,0.452
	c0.618,0.234,0.478,1.227,0.898,1.661c-0.182,0.564-0.634,0.858-0.76,1.499c-0.376-0.019-0.578-0.22-0.597-0.597
	c-0.567-0.02-0.451,0.641-1.201,0.447c0-0.201,0-0.397,0-0.598c-0.821-0.12-1.218,0.183-1.957,0.15
	C24.454,11.981,25.419,10.54,26.776,9.497z"/>
<path fill="#2AA7DB" d="M72.342,16.715c0.371,0.49,0.335,1.378,0.458,2.107c-0.458,0.098-0.526,0.578-1.203,0.456
	c-0.643-0.62-0.292-1.526-0.455-2.411C71.57,16.642,71.76,16.917,72.342,16.715z"/>
<path fill="#2AA7DB" d="M84.681,22.884c0.023,0.83-0.926,0.687-1.352,1.049c-0.479-0.327-0.981-0.619-0.905-1.5
	C83.165,22.043,84.091,22.627,84.681,22.884z"/>
<path fill="#2AA7DB" d="M89.341,23.48c-0.144,0.612-0.66,0.849-1.049,1.206C86.59,24.242,87.662,22.86,89.341,23.48z"/>
<path fill="#2AA7DB" d="M12.944,36.423c1.326-0.384,3.154-0.354,3.158,1.35c-0.997-0.094-1.639,0.164-1.958,0.748
	c-0.517-0.716-1.471-0.044-1.802-0.899c-0.071-0.47,0.319-0.484,0.753-0.452c0.013-0.27-0.188-0.321-0.151-0.603
	c-0.678,0.174-1.124,0.585-2.104,0.453c0.006-1.69-2.241-2.054-3.312-1.352C8.097,32.715,12.159,35.102,12.944,36.423z"/>
<path fill="#2AA7DB" d="M17.756,37.32c0.188,0.814-0.893,0.923-1.351,0.602c0-0.207,0-0.402,0-0.602
	C16.645,37.095,17.509,37.095,17.756,37.32z"/>
<path fill="#2AA7DB" d="M11.745,38.977C9.377,39.771,11.324,36.61,11.745,38.977L11.745,38.977z"/>
<path fill="#2AA7DB" d="M16.405,80.631c0.798-0.169,1.244,1.176,0.598,1.503C16.349,82.088,16.425,81.31,16.405,80.631z"/>
<path fill="#2AA7DB" d="M24.98,88.144c0.465,0.051,0.847,0.164,1.199,0.308c0.051,0.653-0.414,0.793-0.904,0.905
	C24.937,88.947,24.759,88.822,24.98,88.144z"/>
<path fill="#2AA7DB" d="M26.928,88.903c0.456,0.094,0.873,0.239,0.903,0.748c-0.459,0.051-0.903,0.56-1.355,0.157
	C26.481,89.356,26.864,89.292,26.928,88.903z"/>
<path fill="#2AA7DB" d="M85.516,69.089c-0.874-1.562-0.301-3.175,0.64-4.229c-0.464-0.8-0.251-2.433,0.379-3.337
	c0.576-0.81,2.027-0.932,2.575-1.924c0.319-0.595-0.146-1.066,0.515-1.673c1.778,1.328-0.315,4.286-0.779,6.032
	c-0.31,1.187-0.253,1.868-1.024,2.438c0.089,0.515-0.126,0.735-0.132,1.163C87.036,68.137,86.697,69.034,85.516,69.089z"/>
<circle fill="#FFFFFF" cx="50.151" cy="49.972" r="49.393"/>
<path fill="#2AA7DB" d="M47.397,1.847c15.442-0.996,27.604,5.41,35.549,12.701c8.152,7.489,14.523,18.066,15.4,32.854
	c0.919,15.47-5.099,27.204-12.574,35.427c-7.203,7.902-18.404,14.772-32.734,15.521c-15.157,0.8-27.345-5.011-35.545-12.699
	C9.309,77.975,2.591,67.507,1.838,53.054c-0.833-15.911,5.258-27.649,12.57-35.679C19.88,11.371,27.474,6.174,36.745,3.513
	C39.986,2.582,43.969,2.066,47.397,1.847z M25.199,83.984c-1.766-0.641-2.148-2.657-2.7-4.497c-0.138-0.415-0.855-0.258-0.641-1.022
	c0.019-0.189,0.308-0.12,0.507-0.134c0.221-1.87-1.072-3.002-1.148-4.749c-0.063-1.267,0.408-2.549,0.258-3.843
	c-0.282-2.382-0.641-4.724-0.641-7.443c-0.558-0.729-0.987-1.59-2.062-1.805c-1.079-1.263-1.821-2.877-2.304-4.749
	c-0.853-0.393-1.897-2.053-0.904-3.077c-1.156-1.236,0.42-2.933,0.904-4.101c0.044-1.244,0.006-2.4-0.647-2.954
	c-0.477-0.062-0.27,0.584-0.509,0.768c-0.798-0.02-0.741-0.646-1.413-0.515c-0.032-0.649-0.628-0.743-0.899-1.149
	c-0.075-2.023-2.575-1.621-2.951-3.343c-0.478-0.013-0.39,0.56-1.023,0.389c-1.346-1.009-2.545-1.173-2.694-2.699
	c-0.052-0.452,0.257-0.786,0.123-1.284c-0.237-0.908-1.017-1.688-1.28-2.562c-0.011,0.913,1.113,2.432,0.252,2.946
	c-0.534-0.356-0.347-1.445-0.761-1.922c-2.109,4.908-2.708,12.363-2.061,18.995c1.51,15.414,11.006,28.272,22.073,35.289
	c2.562,1.627,4.907,3.367,7.193,2.312c-0.077-0.28-0.385-0.986-0.647-0.64c0.1,0.012,0.391,0.418,0.126,0.383
	c-0.771,0.144-1.954,0.199-2.431-0.514c0.264-0.461,0.264-0.687,0-1.158c-0.554,0.42-1.614,0.163-1.679-0.641
	c0.526-0.125,0.522,0.021,1.162,0c0.266-0.201-0.081-1.013,0.517-0.898c0.538,0.018,0.595,0.662,0.252,0.898
	c0.747,0.114,0.833,0.879,1.412,1.162c-0.063-0.755-0.478-0.722-0.516-1.287c-0.105-1.729,2.571-2.243,3.086-1.023
	c-0.762,0.174-1.591,0.295-1.539,1.28c1.921,1.325,3.353,3.142,5.382,4.359c0.113,0.542-0.245,0.608-0.251,1.028
	c3.014,0.905,9.215,2.791,12.45,1.283c0.689-0.069,1.319,0.101,1.921,0c1.345-0.207,3.236-1.77,4.361-1.923
	c0.371-0.05,0.91,0.216,1.288,0.132c0.582-0.132,0.977-0.74,1.539-1.028c1.562-0.812,3.473-1.031,5.521-1.284
	c0.05,0.636,1.306,0.065,1.279,0.77c0.729-0.409,0.993,0.023,1.798,0.123c0.766-0.99,2.173-0.921,3.85-0.771
	c14.769-7.318,26.326-21.216,27.08-42.086c0.203-5.485-0.69-10.283-1.922-14.888c-1.037,0.05-1.539-0.429-2.436-0.516
	c0,0.936,1.072,1.239,1.153,2.053c0.062,0.749-0.534,0.849-0.515,1.798c-1.181,1.13-2.857,1.758-4.233,2.692
	c-0.018,0.417,0.126,0.989-0.383,0.901c-0.728-0.171-0.66-1.13-1.156-1.532c-0.113-2.371-1.941-3.028-2.055-5.396
	c-0.214-0.429-0.771-0.516-0.897-1.03c-0.233-0.818-0.49-2.219-1.287-2.048c0.135,1.411,1.08,3.116,1.927,4.232
	c-0.368,2.16,1.785,3.914,2.827,5.518c-0.158,0.312-0.728,0.622-0.389,1.022c0.929-0.188,2.123-0.295,3.086-0.766
	c0.193,2.432-1.396,4.17-1.807,6.419c-0.282,0.146-0.418,0.426-0.771,0.51c-0.206,2.185-2.871,2.725-2.559,4.748
	c0.072,0.522,0.817,0.821,1.025,1.42c0.435,1.237-0.208,2.235-0.26,3.845c-1.008,0.791-2.101,1.481-2.692,2.695
	c0.508,0.691,0.464,2.129,0,2.82c-0.213,0-0.429,0-0.641,0c-0.836,1.437-0.937,3.604-2.57,4.239
	c-0.407,1.595-1.839,2.179-3.076,2.95c-1.237-0.49-3.335,1.614-3.851-0.389c-0.176-0.521,0.276-0.4,0.257-0.766
	c-1.181-1.778-1.89-3.518-2.179-5.904c-0.152-1.214-1.177-2.068-1.29-3.203c-0.219-2.269,2.546-4.823,0.132-6.546
	c-0.319-1.829-1.569-2.707-2.06-4.365c0.421-0.773,0.61-2.581,0.132-3.468c-1.325,0.975-2.091-0.954-3.209-1.154
	c-1.326-0.228-2.521,0.934-3.843,1.286c-0.868-0.062-1.115-0.685-1.933-0.641c-0.857,0.038-1.347,0.873-2.31,0.766
	c-2.203-0.25-3.209-2.839-4.101-4.874c-0.63-0.357-1.308-0.674-1.673-1.282c0.152-0.797-0.187-1.1-0.382-1.544
	c0.715-1.131,1.231-3.636,0.134-4.748c1.317-1.842,1.927-4.397,4.226-5.257c1.206-1.114,0.94-3.689,2.826-4.108
	c0-0.729,0.391-1.07,0.773-1.415c-0.423-0.564-1.532-0.435-2.312-0.641c-0.29-1.507,0.634-3.062-0.126-4.616
	c1.054-1.126,3.065,0.156,4.876-0.132c0.759-2.066-0.911-2.748-2.05-3.336c0-0.341-0.05-0.733,0.126-0.897
	c1.519,0.258,1.559-0.907,2.826-0.261c0.038-0.425-0.634-0.136-0.391-0.771c-0.783,0.247-2.299,0.44-3.209,0.132
	c0.172-0.438,0.718-0.482,0.773-1.028c-0.459,0.081-0.729-0.047-0.773-0.378c0.15-0.148,0.46-0.148,0.773-0.14
	c0.088-0.472-0.22-0.537-0.126-1.018c0.146-0.149,0.453-0.149,0.768-0.13c0.123-0.514-0.379-0.389-0.26-0.907
	c-0.47-0.036-0.715,0.153-1.022,0.266c0,0.385,0,0.771,0,1.156c-0.353,0.546-0.923,0.881-1.672,1.024
	c-0.251-0.392-0.841-0.446-1.16-0.766c0.05-0.644-0.02-1.183-0.128-1.673c1.019,0.146,1.227-0.558,2.056-0.891
	c0.031,0.163,0.728,0.5,0.64,0c0.126-0.471-0.57-0.116-0.507-0.522c0.501-0.477,0.401-1.559,1.021-1.923
	c0.402,0.027,0.944-0.089,1.164,0.133c0.05,0.308-0.248,0.277-0.132,0.634c0.488-0.057,0.797,0.059,0.896,0.391
	c0.032,0.501-0.464,0.471-0.383,1.022c0.666-0.005,0.61,0.421,0.509,0.899c0.636,0.269,1.145,0.66,1.156,1.543
	c0.239,0.195,0.724,0.139,0.905,0.387c0.444,0.4-0.397,0.67,0,1.028c1.036,0.094,1.104-0.779,1.538-1.287
	c0.685-0.25,1.621-0.214,2.173-0.26c-0.576-1.134-0.811-2.981,0.907-3.075c0.383,0.961,0.331,1.382,0,2.307
	c0.331,0.476,1.304,0.424,0.896,1.287c1.312,1.173,2.688-0.052,4.234,0.514c0.415-0.705,0.182-2.055,1.028-2.312
	c0.634-0.088,0.423,0.684,1.024,0.64c-0.006-0.891-0.966-1.068-0.508-2.053c-1.289-0.427-2.079-1.346-3.335-1.798
	c0.024,0.611,0.789,0.484,0.64,1.283c-0.931,0.357-0.879,1.69-1.022,2.824c-0.561,0.296-2.32,0.271-2.575-0.514
	c-0.184-0.784,0.789-0.4,0.766-1.03c-0.503-0.597-1.068-1.148-1.282-2.046c-0.954,0.212-1.174,0.915-2.055,0.766
	c-1.338-0.227-1.814-3.127-0.892-4.102c-6.847-2.476-17.192-3.325-25.415-1.547c-0.376,0.476-0.452,1.265-1.029,1.547
	c0.402,1.211-0.941,2.091-1.917,2.692c-0.319-0.111-0.382-0.477-0.647-0.646c-0.42,0.006-0.64,0.221-1.156,0.131
	c-0.374-0.406-0.362-0.63-0.131-1.155c-0.553-0.038-0.61-0.585-1.024-0.766c-3.285,0.946-5.973,2.487-8.723,3.977
	c-0.264,0.502-0.547,0.984-0.773,1.545c0.167,0.125,0.482,0.119,0.514,0.376c1.106-0.176,0.899-1.67,2.053-1.796
	c0.411,1.137,0.737,2.349,1.033,3.592c0.318,0.114,0.684,0.176,1.156,0.134c-0.116,0.835,0.829,0.62,0.891,1.279
	c-0.301,1.023-0.899,1.755-2.047,1.929c-0.116,1.13-1.522,0.966-2.312,1.408c0.214,0.302,1.148-0.119,1.024,0.515
	c-0.723,0.522-1.817-0.107-1.922,1.031c0.3,0.249,1.192-0.082,1.28,0.382c0.031,0.413-0.496,0.27-0.509,0.643
	c0.409,0.056,0.74,0.195,0.634,0.765c-0.778,0.635-1.871,0.957-2.692,1.54c-0.366-0.27-0.083-0.815-0.26-1.025
	c-0.569,0.63-1.684,0.704-2.049,1.545c-0.167,0.505,0.423,0.257,0.26,0.766c-0.873,0.241-1.106,1.12-1.93,1.409
	c-0.415,0.831-0.646,1.834-1.412,2.312c0.044,0.301,0.208,0.484,0.124,0.896c-0.395,1.344-1.733,1.344-2.43,2.436
	c-0.967,1.51,0.678,3.726-0.771,5.01c-0.423-0.773-0.642-1.754-0.773-2.82c-0.837,0.211-0.942-0.209-1.924,0
	c0.038,0.5-0.049,0.893-0.382,1.022c-0.529-0.024-0.547-0.563-1.163-0.515c-2.236,0.729-2.198,4.246-1.407,6.421
	c1.98,0.421,1.302-3.124,3.337-1.798c-0.195,1.13-0.647,1.999-0.898,3.077c3.297-1.022,1.074,2.858,2.438,3.983
	c0.804-0.578,1.84-0.24,2.312,0c0.299-1.238,1.375-1.709,2.436-2.186c0.245,0.564,0.184,0.145,0.773,0.132
	c0.176,0.509,0.672,0.689,0.896,1.156c0.698-0.038,0.929-0.195,1.414,0.132c0.271-0.459,0.843-0.616,1.664-0.514
	c0.157,1.293,1.997,1.793,2.571,3.076c2.971-0.238,3.925,1.559,4.365,3.852c1.167,0.602,2.743,0.413,3.336,1.794
	c2.342-0.274,5.846,1.364,6.412,2.954c0.522,1.443-1.945,3.986-2.436,4.365c0.236,2.054-0.234,5.686-1.416,6.153
	c-0.444,0.186-0.961-0.062-1.539,0c-0.651,0.636-1.688,0.882-2.179,1.681c-0.104,0.646,0.176,0.929,0.132,1.531
	c-1.08,1.317-1.577,3.223-3.084,4.108c-0.188-0.196-0.661-0.106-1.023-0.126c0.912,1.395-0.156,2.826-2.062,2.181
	c0.008,0.421,0.203,0.836,0,1.28c-0.463,0.045-0.828-0.019-1.148-0.126c-0.126,0.724,0.949,0.241,0.896,0.899
	c-0.018,0.332-0.477,0.207-0.646,0.384c0.021,0.369-0.069,0.84,0.132,1.031c-0.195,0.229-0.879-0.028-0.773,0.514
	c0.295,0.389,0.961,0.407,1.032,1.022c-0.326,0.61-0.662,1.227-1.032,1.799c0.642,1.329,1.698,2.24,2.822,3.075
	c-1.056,0.364-2.771-0.08-3.329-0.896c0.419,0.062,0.507-1.364,0.384-1.024C25.287,83.396,25.594,84.04,25.199,83.984z
	 M17.882,15.062c0.182,0.07,0.66-0.149,0.64,0.132c-0.163,0.761-0.458,1.629,0,2.306c1.017-0.055,0.955-1.48,0.643-2.181
	c0.727-0.765,1.782-1.203,1.798-2.692C19.804,12.809,18.642,14.064,17.882,15.062z M63.567,14.802
	c0.309,0.098,0.521-0.823,0.128-0.637C63.799,14.524,63.512,14.498,63.567,14.802z M24.554,17.5c0,0.195-0.479,0.528-0.127,0.641
	c0.347-0.331,1.207-0.155,1.275-0.766C25.182,17.275,25.048,17.57,24.554,17.5z M88.592,23.532
	c-0.634,1.796,0.106,3.291,2.055,3.208c-0.026-1.129-0.534-1.774-1.022-2.437c-0.203-2.5-1.897-3.498-3.09-5.001
	C86.607,20.849,87.589,22.502,88.592,23.532z M79.478,21.483c0.32,0.233,0.528,0.578,0.773,0.899
	c2.789-0.774,4.103,0.958,6.415,0.893c-0.335-1.503-2.205-1.472-2.695-2.821c0.188-0.063,0.666,0.15,0.64-0.133
	c-0.226-0.023-0.294-0.212-0.257-0.509c-0.257,0.214-0.949-0.012-1.156,0.26c0.245,0.141,0.622,0.149,0.514,0.64
	c-0.533-0.107-1.117-0.414-1.669-0.132c-0.164-0.326-0.284-0.385-0.126-0.768c-0.704,0.144-0.68-0.44-1.282-0.385
	C80.169,20.032,79.9,20.829,79.478,21.483z M25.834,19.938c-0.24-0.1-0.471-0.212-0.766-0.25
	C24.899,20.114,25.714,20.213,25.834,19.938z M68.698,19.688c-0.917,0.495-1.853,0.822-3.076,0.384
	c-0.303,1.582-2.206,1.557-1.927,3.721c-0.882,0.894-2.056,1.322-3.721,1.409c1.332,1.15,2.72,0.057,4.107-0.257
	c1.477-0.327,2.89-0.189,4.492,0c0.319-0.107,0.502-0.353,0.897-0.382c0.282,0.23,0.653,0.37,1.03,0.514
	c-0.345,0.686,0.561,0.873,0.251,1.924c1.96,0.775,3.115,2.357,5.133,3.082c0.076-0.589-0.228-0.804-0.126-1.414
	c0.339-0.431,1.42-0.123,1.797-0.514c1.331,1.646,3.787,1.854,6.286,2.053c0.228-1.287,0.12-2.249,0.26-3.468
	c-0.598-0.036-0.855,0.261-1.413,0.261c-0.345-0.078-0.315-0.543-0.768-0.517c-1.475,0.452-2.349-0.698-2.952-1.539
	c0.018-0.609,0.094-2.175-0.905-2.175c-0.012,1.313,0.189,1.666,0.517,2.695c-0.459-0.207-0.076,0.435-0.383,0.377
	c-0.172,0.023-0.383-0.515-0.517-0.126c0.207-0.093,0.207,0.604,0,0.515c-1.733-0.702-2.514-2.358-2.82-4.491
	c-0.538-0.287-0.761-0.622-1.539-0.389c0.188,0.929,1.451,0.779,1.407,1.924c-0.395,0.364-0.598-0.248-1.024-0.252
	c-0.018,0.407,0.339,0.425,0.259,0.897c-0.414,0.064-0.691,0.251-0.773,0.643c-0.245,0.248-0.514-0.14-0.893-0.127
	c0.072,0.311,0.175,0.585,0.119,1.029c-0.294-0.007-0.374,0.214-0.765,0.126c-0.427-0.494-1.271-1.181-1.025-1.924
	c0.678,0.448,1.265,0.241,1.922,0.125C72.079,21.608,69.75,21.29,68.698,19.688z M14.671,21.227
	c0.516-0.024,0.528-0.019,0.383,0.382c0.41,0.064,0.454-0.233,0.901-0.125c0.022-0.547-0.239-0.789-0.643-0.903
	C15.205,20.905,14.862,20.986,14.671,21.227z M14.287,21.734c0.021-0.149,0.228-0.281,0-0.383
	C14.265,21.501,14.057,21.646,14.287,21.734z M16.726,23.018c0.082-0.372,0.208-1.132,0.768-0.635
	c0.032-0.246-0.14-0.29-0.128-0.518c-0.569-0.062-0.64,0.178-1.022,0C16.411,22.314,16.589,22.64,16.726,23.018z M90.264,24.304
	c-0.056-0.243-0.05-0.552-0.383-0.511C89.837,24.128,89.919,24.35,90.264,24.304z M90.264,34.447c0.295-0.042,0.528-0.257,0.768,0
	c0.018,0.617,0.088,1.183,0.383,1.541c1.099,0.062,1.256-0.793,1.67-1.419c-0.494,0.018-0.59,0.433-1.155,0.383
	c-1.356-0.396-1.062-2.446-2.437-2.821C89.528,33.122,90.057,33.621,90.264,34.447z M19.289,44.065
	c0.413,0.052,0.735-0.54,0.257-0.64C19.49,43.677,19.271,43.753,19.289,44.065z"/>
<path fill="#2AA7DB" d="M50.1,2.237c26.426,0,47.847,21.421,47.847,47.846c0,26.426-21.421,47.854-47.847,47.854
	c-26.419,0-47.848-21.429-47.848-47.854C2.252,23.658,23.673,2.237,50.1,2.237 M50.1,0.133c-27.543,0-49.956,22.413-49.956,49.95
	c0,27.546,22.413,49.957,49.956,49.957c27.544,0,49.958-22.407,49.958-49.957C100.049,22.546,77.644,0.133,50.1,0.133L50.1,0.133z"
	/>
<rect x="83.121" y="41.705" fill="#FFFFFF" width="30.768" height="64.211"/>
<path fill="#26303A" d="M111.094,40.213H85.916c-3.09,0-5.589,2.519-5.589,5.62v57.496c0,3.104,2.499,5.621,5.589,5.621h25.178
	c3.092,0,5.598-2.518,5.598-5.621V45.833C116.691,42.731,114.186,40.213,111.094,40.213z M95.756,46.187h5.501
	c0.407,0,0.746,0.333,0.746,0.748c0,0.406-0.339,0.747-0.746,0.747h-5.501c-0.417,0-0.75-0.341-0.75-0.747
	C95.006,46.52,95.339,46.187,95.756,46.187z M92.55,45.897c0.484,0,0.886,0.402,0.886,0.891c0,0.491-0.401,0.894-0.886,0.894
	c-0.49,0-0.893-0.402-0.893-0.894C91.657,46.3,92.06,45.897,92.55,45.897z M98.506,105.916c-1.936,0-3.5-1.57-3.5-3.516
	c0-1.948,1.564-3.519,3.5-3.519c1.93,0,3.497,1.57,3.497,3.519C102.003,104.346,100.436,105.916,98.506,105.916z M113.889,96.377
	H83.121V52.78h30.768V96.377z"/>
<polygon fill="#26303A" points="101.628,74.918 101.628,64.746 95.102,64.746 95.102,74.918 91.187,74.918 98.506,81.739 
	105.821,74.918 "/>
<rect x="91.187" y="81.739" fill="#26303A" width="14.635" height="2.098"/>
</svg>
