<?xml version="1.0" encoding="utf-8"?>
<!-- Generator: Adobe Illustrator 15.0.2, SVG Export Plug-In . SVG Version: 6.00 Build 0)  -->
<!DOCTYPE svg PUBLIC "-//W3C//DTD SVG 1.1//EN" "http://www.w3.org/Graphics/SVG/1.1/DTD/svg11.dtd">
<svg version="1.1" id="Layer_1" xmlns="http://www.w3.org/2000/svg" xmlns:xlink="http://www.w3.org/1999/xlink" x="0px" y="0px"
	 width="145px" height="103px" viewBox="0 0 145 103" enable-background="new 0 0 145 103" xml:space="preserve">
<rect x="40" y="6" fill="#FFFFFF" width="68" height="94"/>
<path fill="#26303A" d="M106.582,0.01H41.469c-2.422,0-4.387,1.965-4.387,4.389v94.074c0,2.424,1.965,4.391,4.387,4.391h65.113
	c2.424,0,4.39-1.967,4.39-4.391V4.398C110.972,1.975,109.006,0.01,106.582,0.01z M74.026,100.494c-1.514,0-2.743-1.227-2.743-2.742
	s1.229-2.744,2.743-2.744c1.515,0,2.743,1.229,2.743,2.744S75.541,100.494,74.026,100.494z M106.484,92.701H41.567V8.131h64.917
	V92.701z"/>
<rect x="118.433" y="50.385" fill="#FFFFFF" width="24.136" height="50.109"/>
<path fill="#26303A" d="M140.375,46.857h-19.751c-2.421,0-4.387,1.965-4.387,4.389v47.229c0,2.422,1.966,4.389,4.387,4.389h19.751
	c2.423,0,4.389-1.967,4.389-4.389V51.246C144.764,48.822,142.798,46.857,140.375,46.857z M128.342,51.514h4.318
	c0.32,0,0.582,0.262,0.582,0.586c0,0.322-0.262,0.584-0.582,0.584h-4.318c-0.324,0-0.585-0.262-0.585-0.584
	C127.757,51.775,128.018,51.514,128.342,51.514z M125.826,51.293c0.386,0,0.695,0.311,0.695,0.693c0,0.385-0.31,0.697-0.695,0.697
	c-0.385,0-0.698-0.312-0.698-0.697C125.128,51.604,125.441,51.293,125.826,51.293z M130.5,100.494c-1.516,0-2.743-1.227-2.743-2.742
	s1.228-2.744,2.743-2.744s2.742,1.229,2.742,2.744S132.016,100.494,130.5,100.494z M142.568,93.057h-24.136V56.664h24.136V93.057z"
	/>
<path fill="#2AA7DB" d="M57.022,25.078c0,0.398-0.324,0.723-0.724,0.723h-8.268c-0.4,0-0.725-0.324-0.725-0.723v-8.27
	c0-0.398,0.324-0.723,0.725-0.723h8.268c0.399,0,0.724,0.324,0.724,0.723V25.078z"/>
<path fill="#2AA7DB" d="M71.598,25.078c0,0.398-0.324,0.723-0.727,0.723h-8.266c-0.401,0-0.726-0.324-0.726-0.723v-8.27
	c0-0.398,0.324-0.723,0.726-0.723h8.266c0.402,0,0.727,0.324,0.727,0.723V25.078z"/>
<path fill="#2AA7DB" d="M86.171,25.078c0,0.398-0.325,0.723-0.724,0.723H77.18c-0.4,0-0.725-0.324-0.725-0.723v-8.27
	c0-0.398,0.324-0.723,0.725-0.723h8.268c0.398,0,0.724,0.324,0.724,0.723V25.078z"/>
<path fill="#2AA7DB" d="M100.746,25.078c0,0.398-0.324,0.723-0.727,0.723h-8.266c-0.402,0-0.727-0.324-0.727-0.723v-8.27
	c0-0.398,0.324-0.723,0.727-0.723h8.266c0.402,0,0.727,0.324,0.727,0.723V25.078z"/>
<path fill="#2AA7DB" d="M57.022,39.799c0,0.398-0.324,0.723-0.724,0.723h-8.268c-0.4,0-0.725-0.324-0.725-0.723v-8.27
	c0-0.398,0.324-0.723,0.725-0.723h8.268c0.399,0,0.724,0.324,0.724,0.723V39.799z"/>
<path fill="#2AA7DB" d="M71.598,39.799c0,0.398-0.324,0.723-0.727,0.723h-8.266c-0.401,0-0.726-0.324-0.726-0.723v-8.27
	c0-0.398,0.324-0.723,0.726-0.723h8.266c0.402,0,0.727,0.324,0.727,0.723V39.799z"/>
<path fill="#2AA7DB" d="M86.171,39.799c0,0.398-0.325,0.723-0.724,0.723H77.18c-0.4,0-0.725-0.324-0.725-0.723v-8.27
	c0-0.398,0.324-0.723,0.725-0.723h8.268c0.398,0,0.724,0.324,0.724,0.723V39.799z"/>
<path fill="#2AA7DB" d="M100.746,39.799c0,0.398-0.324,0.723-0.727,0.723h-8.266c-0.402,0-0.727-0.324-0.727-0.723v-8.27
	c0-0.398,0.324-0.723,0.727-0.723h8.266c0.402,0,0.727,0.324,0.727,0.723V39.799z"/>
<path fill="#2AA7DB" d="M57.022,54.52c0,0.398-0.324,0.723-0.724,0.723h-8.268c-0.4,0-0.725-0.324-0.725-0.723v-8.268
	c0-0.4,0.324-0.725,0.725-0.725h8.268c0.399,0,0.724,0.324,0.724,0.725V54.52z"/>
<path fill="#2AA7DB" d="M71.598,54.52c0,0.398-0.324,0.723-0.727,0.723h-8.266c-0.401,0-0.726-0.324-0.726-0.723v-8.268
	c0-0.4,0.324-0.725,0.726-0.725h8.266c0.402,0,0.727,0.324,0.727,0.725V54.52z"/>
<path fill="#2AA7DB" d="M86.171,54.52c0,0.398-0.325,0.723-0.724,0.723H77.18c-0.4,0-0.725-0.324-0.725-0.723v-8.268
	c0-0.4,0.324-0.725,0.725-0.725h8.268c0.398,0,0.724,0.324,0.724,0.725V54.52z"/>
<path fill="#2AA7DB" d="M100.746,54.52c0,0.398-0.324,0.723-0.727,0.723h-8.266c-0.402,0-0.727-0.324-0.727-0.723v-8.268
	c0-0.4,0.324-0.725,0.727-0.725h8.266c0.402,0,0.727,0.324,0.727,0.725V54.52z"/>
<path fill="#2AA7DB" d="M57.022,69.24c0,0.4-0.324,0.723-0.724,0.723h-8.268c-0.4,0-0.725-0.322-0.725-0.723v-8.268
	c0-0.4,0.324-0.725,0.725-0.725h8.268c0.399,0,0.724,0.324,0.724,0.725V69.24z"/>
<path fill="#2AA7DB" d="M71.598,69.24c0,0.4-0.324,0.723-0.727,0.723h-8.266c-0.401,0-0.726-0.322-0.726-0.723v-8.268
	c0-0.4,0.324-0.725,0.726-0.725h8.266c0.402,0,0.727,0.324,0.727,0.725V69.24z"/>
<path fill="#2AA7DB" d="M86.171,69.24c0,0.4-0.325,0.723-0.724,0.723H77.18c-0.4,0-0.725-0.322-0.725-0.723v-8.268
	c0-0.4,0.324-0.725,0.725-0.725h8.268c0.398,0,0.724,0.324,0.724,0.725V69.24z"/>
<path fill="#2AA7DB" d="M100.746,69.24c0,0.4-0.324,0.723-0.727,0.723h-8.266c-0.402,0-0.727-0.322-0.727-0.723v-8.268
	c0-0.4,0.324-0.725,0.727-0.725h8.266c0.402,0,0.727,0.324,0.727,0.725V69.24z"/>
<path fill="#2AA7DB" d="M57.022,83.961c0,0.4-0.324,0.723-0.724,0.723h-8.268c-0.4,0-0.725-0.322-0.725-0.723v-8.268
	c0-0.398,0.324-0.725,0.725-0.725h8.268c0.399,0,0.724,0.326,0.724,0.725V83.961z"/>
<path fill="#2AA7DB" d="M71.598,83.961c0,0.4-0.324,0.723-0.727,0.723h-8.266c-0.401,0-0.726-0.322-0.726-0.723v-8.268
	c0-0.398,0.324-0.725,0.726-0.725h8.266c0.402,0,0.727,0.326,0.727,0.725V83.961z"/>
<path fill="#2AA7DB" d="M86.171,83.961c0,0.4-0.325,0.723-0.724,0.723H77.18c-0.4,0-0.725-0.322-0.725-0.723v-8.268
	c0-0.398,0.324-0.725,0.725-0.725h8.268c0.398,0,0.724,0.326,0.724,0.725V83.961z"/>
<path fill="#2AA7DB" d="M100.746,83.961c0,0.4-0.324,0.723-0.727,0.723h-8.266c-0.402,0-0.727-0.322-0.727-0.723v-8.268
	c0-0.398,0.324-0.725,0.727-0.725h8.266c0.402,0,0.727,0.326,0.727,0.725V83.961z"/>
<rect x="2" y="45" fill="#FFFFFF" width="28" height="55"/>
<rect x="11" y="43" fill="#FFFFFF" width="12" height="3"/>
<path fill="#26303A" d="M16.259,42.424c-7.842,0-15.688,1.408-15.688,3.818c0,2.414,0,25.018,0,25.018s0,25.371,0,27.785
	c0,2.412,7.846,3.818,15.688,3.818c7.846,0,15.689-1.406,15.689-3.818c0-2.414,0-27.785,0-27.785s0-22.604,0-25.018
	C31.948,43.832,24.104,42.424,16.259,42.424z M21.858,44.561c0.376,0,0.682,0.307,0.682,0.684s-0.306,0.684-0.682,0.684
	c-0.38,0-0.686-0.307-0.686-0.684S21.479,44.561,21.858,44.561z M13.52,45.021H19c0.19,0,0.343,0.152,0.343,0.344
	c0,0.186-0.152,0.34-0.343,0.34h-5.48c-0.188,0-0.344-0.154-0.344-0.34C13.176,45.174,13.331,45.021,13.52,45.021z M20.203,99.137
	c0,0.701-0.571,1.271-1.274,1.271h-5.338c-0.702,0-1.271-0.57-1.271-1.271v-1.385c0-0.703,0.569-1.271,1.271-1.271h5.338
	c0.703,0,1.274,0.568,1.274,1.271V99.137z M30.002,94.588H2.521V48.027h27.481V94.588z"/>
</svg>
