<?xml version="1.0" encoding="utf-8"?>
<!-- Generator: Adobe Illustrator 15.0.2, SVG Export Plug-In . SVG Version: 6.00 Build 0)  -->
<!DOCTYPE svg PUBLIC "-//W3C//DTD SVG 1.1//EN" "http://www.w3.org/Graphics/SVG/1.1/DTD/svg11.dtd">
<svg version="1.1" id="Layer_1" xmlns="http://www.w3.org/2000/svg" xmlns:xlink="http://www.w3.org/1999/xlink" x="0px" y="0px"
	 width="132px" height="109.917px" viewBox="0 0 132 109.917" enable-background="new 0 0 132 109.917" xml:space="preserve">
<path fill="#2AA7DB" d="M32.479,96.145c-0.704,0-1.224-0.188-1.206-0.91C31.688,95.011,32.468,95.486,32.479,96.145z"/>
<path fill="#2AA7DB" d="M16.989,80.499c0.798-0.169,1.244,1.176,0.598,1.503C16.934,81.956,17.01,81.177,16.989,80.499z"/>
<path fill="#2AA7DB" d="M25.564,88.012c0.465,0.05,0.848,0.163,1.2,0.307c0.05,0.654-0.415,0.794-0.905,0.905
	C25.521,88.815,25.344,88.689,25.564,88.012z"/>
<path fill="#2AA7DB" d="M27.512,88.771c0.457,0.094,0.873,0.239,0.904,0.747c-0.459,0.052-0.904,0.56-1.356,0.158
	C27.065,89.224,27.448,89.16,27.512,88.771z"/>
<path fill="#2AA7DB" d="M86.1,68.957c-0.873-1.562-0.301-3.175,0.64-4.229c-0.464-0.8-0.251-2.433,0.38-3.337
	c0.575-0.81,2.026-0.932,2.575-1.924c0.319-0.595-0.146-1.066,0.514-1.673c1.778,1.328-0.314,4.285-0.779,6.032
	c-0.309,1.186-0.253,1.868-1.024,2.438c0.09,0.514-0.125,0.735-0.132,1.162C87.621,68.005,87.281,68.902,86.1,68.957z"/>
<circle fill="#FFFFFF" cx="50.736" cy="49.839" r="49.393"/>
<path fill="#2AA7DB" d="M47.981,1.715c15.442-0.997,27.604,5.41,35.549,12.701c8.152,7.489,14.524,18.066,15.4,32.854
	c0.919,15.47-5.099,27.204-12.573,35.427C79.153,90.6,67.953,97.47,53.623,98.218c-15.158,0.799-27.345-5.011-35.546-12.7
	C9.893,77.842,3.176,67.375,2.422,52.921c-0.833-15.91,5.258-27.648,12.57-35.679c5.472-6.004,13.066-11.2,22.338-13.861
	C40.57,2.45,44.553,1.935,47.981,1.715z M25.783,83.853c-1.766-0.641-2.148-2.658-2.7-4.497c-0.138-0.415-0.855-0.258-0.64-1.022
	c0.018-0.19,0.307-0.12,0.506-0.134c0.221-1.87-1.072-3.003-1.148-4.749c-0.062-1.268,0.408-2.549,0.258-3.843
	c-0.281-2.383-0.641-4.725-0.641-7.443c-0.557-0.729-0.986-1.59-2.061-1.806c-1.08-1.262-1.822-2.877-2.305-4.748
	c-0.853-0.394-1.897-2.053-0.904-3.077c-1.156-1.236,0.42-2.933,0.904-4.101c0.044-1.244,0.006-2.4-0.647-2.955
	c-0.477-0.061-0.269,0.585-0.509,0.768c-0.797-0.02-0.741-0.645-1.412-0.514c-0.032-0.649-0.629-0.744-0.9-1.149
	c-0.075-2.023-2.575-1.621-2.951-3.344c-0.477-0.012-0.389,0.561-1.023,0.389c-1.346-1.008-2.545-1.172-2.694-2.698
	c-0.052-0.453,0.257-0.786,0.123-1.284c-0.237-0.909-1.017-1.688-1.28-2.562c-0.011,0.913,1.113,2.432,0.252,2.946
	c-0.534-0.357-0.347-1.445-0.761-1.922c-2.109,4.908-2.707,12.363-2.06,18.994c1.509,15.414,11.005,28.273,22.072,35.29
	c2.563,1.627,4.907,3.367,7.193,2.312c-0.077-0.28-0.385-0.986-0.647-0.64c0.1,0.012,0.392,0.418,0.126,0.383
	c-0.771,0.144-1.953,0.199-2.431-0.515c0.264-0.46,0.264-0.686,0-1.158c-0.554,0.421-1.614,0.163-1.678-0.64
	c0.525-0.125,0.522,0.02,1.162,0c0.265-0.201-0.082-1.013,0.516-0.899c0.538,0.019,0.595,0.662,0.252,0.899
	c0.747,0.114,0.833,0.879,1.413,1.162c-0.064-0.756-0.479-0.722-0.516-1.287c-0.106-1.729,2.57-2.243,3.085-1.023
	c-0.762,0.174-1.591,0.295-1.538,1.28c1.92,1.325,3.352,3.142,5.381,4.359c0.113,0.542-0.245,0.608-0.25,1.028
	c3.013,0.905,9.215,2.79,12.449,1.283c0.689-0.069,1.32,0.101,1.922,0c1.344-0.207,3.235-1.77,4.361-1.924
	c0.371-0.049,0.909,0.216,1.287,0.133c0.582-0.133,0.977-0.74,1.539-1.029c1.562-0.811,3.473-1.03,5.521-1.283
	c0.051,0.636,1.306,0.065,1.28,0.769c0.729-0.408,0.993,0.024,1.798,0.124c0.766-0.99,2.172-0.921,3.85-0.771
	C86.105,85.638,97.664,71.74,98.417,50.87c0.203-5.485-0.69-10.284-1.922-14.888c-1.036,0.05-1.539-0.429-2.436-0.517
	c0,0.937,1.072,1.24,1.153,2.053c0.062,0.75-0.533,0.85-0.514,1.799c-1.182,1.13-2.858,1.758-4.234,2.692
	c-0.018,0.417,0.126,0.988-0.383,0.9c-0.727-0.171-0.659-1.129-1.156-1.532c-0.113-2.37-1.94-3.027-2.055-5.396
	c-0.213-0.429-0.771-0.517-0.896-1.031c-0.233-0.817-0.49-2.218-1.288-2.047c0.136,1.411,1.08,3.115,1.928,4.231
	c-0.368,2.161,1.784,3.915,2.827,5.518c-0.158,0.313-0.729,0.622-0.39,1.022c0.929-0.187,2.123-0.294,3.086-0.766
	c0.193,2.432-1.396,4.171-1.806,6.419c-0.283,0.146-0.418,0.427-0.771,0.511c-0.205,2.185-2.871,2.725-2.558,4.748
	c0.071,0.522,0.817,0.821,1.024,1.42c0.435,1.237-0.207,2.235-0.26,3.844c-1.008,0.792-2.1,1.481-2.692,2.696
	c0.509,0.69,0.464,2.129,0,2.819c-0.213,0-0.429,0-0.64,0c-0.837,1.438-0.938,3.604-2.571,4.24c-0.407,1.595-1.839,2.179-3.076,2.95
	c-1.237-0.49-3.335,1.614-3.851-0.389c-0.176-0.522,0.276-0.401,0.258-0.766c-1.181-1.778-1.891-3.518-2.18-5.904
	c-0.152-1.214-1.176-2.068-1.289-3.203c-0.22-2.269,2.545-4.823,0.131-6.546c-0.318-1.83-1.568-2.707-2.06-4.365
	c0.421-0.773,0.61-2.581,0.132-3.469c-1.325,0.975-2.091-0.953-3.209-1.153c-1.326-0.228-2.52,0.934-3.843,1.285
	c-0.868-0.062-1.114-0.684-1.932-0.64c-0.857,0.037-1.347,0.872-2.311,0.766c-2.202-0.25-3.209-2.839-4.101-4.875
	c-0.629-0.356-1.308-0.673-1.672-1.281c0.151-0.797-0.188-1.1-0.383-1.545c0.715-1.13,1.232-3.635,0.134-4.747
	c1.317-1.843,1.927-4.397,4.226-5.257c1.206-1.114,0.941-3.689,2.826-4.108c0-0.729,0.391-1.07,0.774-1.415
	c-0.423-0.564-1.533-0.435-2.312-0.641c-0.29-1.507,0.634-3.062-0.126-4.616c1.055-1.126,3.065,0.155,4.876-0.132
	c0.76-2.066-0.911-2.748-2.049-3.337c0-0.341-0.05-0.733,0.125-0.896c1.519,0.258,1.559-0.907,2.826-0.262
	c0.038-0.424-0.634-0.135-0.391-0.771c-0.783,0.247-2.298,0.44-3.209,0.132c0.172-0.438,0.718-0.482,0.773-1.029
	c-0.459,0.082-0.729-0.046-0.773-0.377c0.151-0.148,0.46-0.148,0.773-0.14c0.088-0.472-0.22-0.537-0.125-1.019
	c0.146-0.149,0.452-0.149,0.767-0.129c0.124-0.515-0.379-0.389-0.26-0.907c-0.47-0.036-0.715,0.153-1.021,0.266
	c0,0.385,0,0.771,0,1.156c-0.354,0.545-0.924,0.881-1.672,1.024c-0.252-0.392-0.842-0.447-1.16-0.766
	c0.049-0.645-0.021-1.183-0.129-1.673c1.02,0.146,1.227-0.558,2.056-0.891c0.032,0.163,0.728,0.5,0.64,0
	c0.126-0.471-0.57-0.116-0.506-0.522c0.5-0.477,0.4-1.559,1.021-1.923c0.402,0.027,0.944-0.089,1.164,0.133
	c0.05,0.308-0.247,0.277-0.132,0.634c0.488-0.058,0.798,0.058,0.897,0.391c0.032,0.501-0.465,0.471-0.384,1.022
	c0.666-0.006,0.611,0.421,0.51,0.899c0.635,0.269,1.144,0.659,1.155,1.543c0.239,0.195,0.724,0.139,0.905,0.387
	c0.444,0.4-0.396,0.67,0,1.028c1.036,0.094,1.104-0.779,1.539-1.287c0.684-0.25,1.62-0.214,2.172-0.26
	c-0.576-1.135-0.811-2.981,0.907-3.075c0.383,0.96,0.331,1.381,0,2.306c0.331,0.477,1.304,0.425,0.897,1.288
	c1.312,1.172,2.688-0.052,4.233,0.514c0.415-0.705,0.182-2.055,1.028-2.312c0.635-0.088,0.424,0.685,1.025,0.641
	c-0.007-0.891-0.967-1.068-0.509-2.054c-1.289-0.426-2.079-1.346-3.335-1.797c0.024,0.611,0.79,0.484,0.64,1.283
	c-0.931,0.357-0.878,1.69-1.022,2.824c-0.561,0.296-2.32,0.271-2.575-0.514c-0.184-0.784,0.789-0.401,0.767-1.031
	c-0.503-0.596-1.069-1.147-1.283-2.045c-0.954,0.211-1.174,0.915-2.055,0.766c-1.337-0.228-1.814-3.128-0.891-4.103
	c-6.848-2.476-17.193-3.324-25.416-1.547c-0.376,0.477-0.451,1.266-1.029,1.547c0.402,1.212-0.941,2.091-1.916,2.692
	c-0.32-0.11-0.383-0.476-0.647-0.646c-0.421,0.007-0.64,0.222-1.157,0.132c-0.374-0.406-0.362-0.63-0.131-1.156
	c-0.553-0.037-0.609-0.584-1.024-0.766c-3.285,0.947-5.973,2.488-8.723,3.978c-0.264,0.502-0.547,0.984-0.773,1.545
	c0.167,0.125,0.482,0.119,0.514,0.376c1.106-0.176,0.899-1.67,2.054-1.796c0.411,1.136,0.736,2.348,1.033,3.592
	c0.318,0.114,0.683,0.176,1.155,0.134c-0.116,0.835,0.829,0.62,0.892,1.279c-0.302,1.022-0.9,1.755-2.047,1.928
	c-0.116,1.131-1.523,0.967-2.312,1.409c0.213,0.302,1.147-0.119,1.023,0.515c-0.723,0.522-1.817-0.107-1.922,1.031
	c0.3,0.248,1.193-0.083,1.28,0.382c0.032,0.413-0.496,0.27-0.508,0.643c0.408,0.056,0.739,0.194,0.634,0.765
	c-0.779,0.634-1.872,0.957-2.693,1.539c-0.366-0.269-0.083-0.815-0.26-1.024c-0.569,0.63-1.684,0.703-2.049,1.545
	c-0.167,0.504,0.423,0.257,0.26,0.766c-0.873,0.24-1.105,1.12-1.93,1.409c-0.415,0.831-0.646,1.834-1.412,2.312
	c0.045,0.301,0.208,0.484,0.124,0.897c-0.394,1.344-1.733,1.344-2.429,2.436c-0.968,1.509,0.677,3.726-0.772,5.01
	c-0.422-0.773-0.642-1.754-0.773-2.821c-0.837,0.212-0.942-0.209-1.923,0c0.037,0.501-0.05,0.894-0.383,1.023
	c-0.529-0.024-0.547-0.564-1.162-0.515c-2.236,0.729-2.199,4.246-1.408,6.42c1.98,0.422,1.303-3.123,3.338-1.797
	c-0.195,1.13-0.648,1.999-0.899,3.077c3.297-1.022,1.074,2.858,2.438,3.982c0.804-0.577,1.84-0.239,2.312,0
	c0.299-1.237,1.376-1.708,2.437-2.185c0.244,0.564,0.183,0.144,0.773,0.132c0.175,0.509,0.671,0.689,0.896,1.156
	c0.697-0.038,0.929-0.195,1.413,0.132c0.271-0.459,0.844-0.616,1.665-0.515c0.156,1.293,1.996,1.794,2.57,3.077
	c2.971-0.238,3.926,1.559,4.365,3.852c1.167,0.602,2.743,0.413,3.336,1.794c2.342-0.274,5.846,1.363,6.412,2.954
	c0.522,1.443-1.945,3.986-2.436,4.365c0.236,2.054-0.233,5.686-1.416,6.153c-0.444,0.186-0.961-0.062-1.539,0
	c-0.651,0.636-1.688,0.882-2.178,1.681c-0.105,0.646,0.176,0.929,0.131,1.53c-1.08,1.318-1.576,3.224-3.084,4.108
	c-0.188-0.195-0.661-0.105-1.023-0.125c0.912,1.395-0.156,2.826-2.062,2.181c0.008,0.42,0.203,0.835,0,1.279
	c-0.463,0.046-0.827-0.018-1.147-0.125c-0.126,0.723,0.948,0.24,0.896,0.899c-0.018,0.332-0.477,0.207-0.646,0.384
	c0.021,0.369-0.069,0.839,0.132,1.031c-0.195,0.229-0.878-0.028-0.773,0.514c0.296,0.389,0.961,0.406,1.032,1.022
	c-0.326,0.609-0.662,1.227-1.032,1.798c0.642,1.33,1.698,2.24,2.823,3.076c-1.057,0.364-2.771-0.08-3.33-0.897
	c0.42,0.062,0.507-1.363,0.384-1.024C25.871,83.264,26.178,83.907,25.783,83.853z M18.467,14.931
	c0.181,0.069,0.66-0.149,0.639,0.131c-0.162,0.762-0.458,1.629,0,2.307c1.018-0.056,0.955-1.48,0.643-2.181
	c0.728-0.765,1.782-1.203,1.798-2.692C20.388,12.676,19.226,13.932,18.467,14.931z M64.151,14.67
	c0.31,0.098,0.522-0.823,0.128-0.637C64.383,14.393,64.096,14.366,64.151,14.67z M25.138,17.368c0,0.195-0.478,0.528-0.127,0.64
	c0.347-0.33,1.208-0.154,1.275-0.766C25.766,17.144,25.633,17.438,25.138,17.368z M89.176,23.4
	c-0.634,1.796,0.107,3.291,2.055,3.207c-0.025-1.128-0.534-1.773-1.022-2.436c-0.203-2.5-1.897-3.498-3.089-5.002
	C87.191,20.717,88.173,22.37,89.176,23.4z M80.062,21.352c0.32,0.232,0.527,0.577,0.773,0.898c2.788-0.773,4.102,0.959,6.414,0.894
	c-0.334-1.504-2.205-1.472-2.695-2.821c0.188-0.063,0.666,0.15,0.641-0.134c-0.227-0.023-0.295-0.211-0.258-0.508
	c-0.256,0.214-0.948-0.012-1.156,0.26c0.245,0.141,0.622,0.148,0.514,0.639c-0.533-0.106-1.117-0.414-1.669-0.131
	c-0.164-0.327-0.283-0.385-0.126-0.768c-0.703,0.144-0.68-0.44-1.282-0.385C80.754,19.9,80.484,20.697,80.062,21.352z
	 M26.418,19.807c-0.24-0.1-0.471-0.212-0.766-0.25C25.483,19.981,26.298,20.081,26.418,19.807z M69.282,19.557
	c-0.917,0.494-1.853,0.822-3.075,0.384c-0.303,1.582-2.207,1.557-1.928,3.721c-0.881,0.894-2.055,1.321-3.72,1.409
	c1.331,1.15,2.719,0.056,4.106-0.257c1.477-0.327,2.891-0.189,4.492,0c0.319-0.108,0.502-0.353,0.897-0.383
	c0.282,0.23,0.653,0.371,1.03,0.515c-0.345,0.686,0.561,0.872,0.252,1.924c1.959,0.774,3.115,2.357,5.133,3.082
	c0.075-0.589-0.229-0.804-0.127-1.414c0.34-0.431,1.42-0.124,1.797-0.515c1.332,1.646,3.787,1.854,6.287,2.054
	c0.227-1.288,0.119-2.249,0.259-3.469c-0.598-0.035-0.854,0.262-1.413,0.262c-0.345-0.078-0.315-0.543-0.768-0.518
	c-1.475,0.453-2.349-0.697-2.952-1.538c0.018-0.609,0.094-2.175-0.905-2.175c-0.012,1.313,0.189,1.666,0.517,2.695
	c-0.458-0.208-0.076,0.435-0.383,0.377c-0.172,0.023-0.382-0.515-0.517-0.126c0.208-0.094,0.208,0.604,0,0.515
	c-1.733-0.702-2.514-2.358-2.82-4.491c-0.537-0.287-0.761-0.622-1.539-0.389c0.188,0.929,1.451,0.779,1.407,1.924
	c-0.394,0.364-0.597-0.248-1.024-0.252c-0.018,0.407,0.34,0.425,0.26,0.897c-0.414,0.064-0.691,0.251-0.773,0.642
	c-0.246,0.249-0.515-0.14-0.893-0.126c0.071,0.31,0.175,0.584,0.119,1.029c-0.295-0.007-0.375,0.213-0.766,0.125
	c-0.427-0.494-1.27-1.18-1.025-1.923c0.678,0.448,1.265,0.24,1.922,0.125C72.663,21.477,70.334,21.157,69.282,19.557z
	 M15.256,21.094c0.516-0.023,0.527-0.018,0.382,0.383c0.411,0.064,0.454-0.233,0.901-0.125c0.023-0.547-0.239-0.79-0.643-0.903
	C15.789,20.773,15.446,20.854,15.256,21.094z M14.872,21.602c0.021-0.148,0.228-0.28,0-0.382
	C14.849,21.369,14.641,21.515,14.872,21.602z M17.311,22.886c0.082-0.372,0.207-1.132,0.767-0.636
	c0.032-0.245-0.14-0.289-0.127-0.517c-0.569-0.062-0.64,0.178-1.023,0C16.995,22.182,17.173,22.508,17.311,22.886z M90.848,24.172
	c-0.056-0.243-0.05-0.553-0.383-0.511C90.421,23.996,90.503,24.217,90.848,24.172z M90.848,34.315c0.295-0.042,0.529-0.257,0.768,0
	c0.018,0.616,0.088,1.183,0.383,1.541c1.099,0.062,1.256-0.793,1.67-1.419c-0.493,0.018-0.59,0.433-1.155,0.383
	c-1.355-0.396-1.062-2.446-2.437-2.821C90.113,32.99,90.641,33.488,90.848,34.315z M19.873,43.934
	c0.414,0.052,0.736-0.541,0.258-0.64C20.074,43.545,19.855,43.62,19.873,43.934z"/>
<path fill="#2AA7DB" d="M50.685,2.105c26.426,0,47.846,21.42,47.846,47.846S77.11,97.806,50.685,97.806
	c-26.42,0-47.849-21.429-47.849-47.854S24.257,2.105,50.685,2.105 M50.685,0C23.141,0,0.729,22.413,0.729,49.951
	c0,27.546,22.412,49.957,49.956,49.957s49.957-22.407,49.957-49.957C100.633,22.413,78.229,0,50.685,0L50.685,0z"/>
<rect x="87" y="97.522" fill="#FFFFFF" width="24" height="9"/>
<path fill="#26303A" d="M117.576,96.57h-9.564c-1.02,0-2.119-0.788-2.452-1.75c0,0-1.519-4.414-2.547-9.523
	c-0.452-2.265-0.869-4.646-0.869-4.646c-0.174-0.998,0.347-2.321,1.161-2.932c0,0,13.16-9.941,15.123-19.774
	c1.787-8.93,1.257-21.344,1.257-21.344c-0.042-1.012-0.91-1.846-1.927-1.846H81.872c-1.017,0-1.885,0.834-1.927,1.846
	c0,0-0.529,12.414,1.257,21.344c1.966,9.833,15.126,19.774,15.126,19.774c0.81,0.61,1.332,1.934,1.156,2.935
	c0,0-0.418,2.378-0.869,4.643c-1.021,5.109-2.545,9.523-2.545,9.523c-0.331,0.962-1.436,1.75-2.454,1.75h-9.565
	c-1.019,0-1.848,0.832-1.848,1.848v9.651c0,1.017,0.829,1.848,1.848,1.848h35.525c1.019,0,1.851-0.831,1.851-1.848v-9.651
	C119.427,97.402,118.595,96.57,117.576,96.57z M110.084,104.25c0,0.512-0.419,0.926-0.925,0.926H90.471
	c-0.506,0-0.928-0.414-0.928-0.926v-4.726c0-0.508,0.422-0.922,0.928-0.922h18.688c0.506,0,0.925,0.414,0.925,0.922V104.25z"/>
<path fill="#26303A" d="M131.344,47.394c-0.227-0.942-0.543-1.88-1.059-2.827c-0.523-0.979-1.369-1.963-2.404-2.602
	c-1.033-0.645-2.219-0.959-3.318-0.967c-1.104-0.017-2.135,0.244-3.035,0.653c-0.182,0.089-0.182,0.089-0.182,0.089
	c-0.195,0.105-0.357,0.61-0.365,1.116l-0.024,1.303c-0.015,0.506,0.38,0.829,0.878,0.722c0,0,0.125-0.027,0.608-0.045
	c0.616-0.02,1.179,0.064,1.635,0.236c0.228,0.081,0.432,0.193,0.601,0.309c0.175,0.116,0.322,0.248,0.438,0.393
	c0.123,0.141,0.221,0.293,0.309,0.457c0.042,0.081,0.042,0.081,0.042,0.081c0.042,0.101,0.083,0.201,0.093,0.229
	c0.013,0.023,0.045,0.107,0.053,0.127c0,0.022,0.014,0.039,0.014,0.044l0.003,0.008v-0.002c-0.005-0.006-0.015-0.011-0.005-0.003
	c0.005,0.013,0.012,0.032,0.021,0.051c0.006,0.021,0.123,0.435,0.261,0.923c0,0,0.044,0.162,0.13,0.761
	c0.167,1.213,0.177,2.55,0.035,3.846c-0.147,1.288-0.459,2.584-0.914,3.562c-0.11,0.243-0.228,0.454-0.34,0.641
	c-0.06,0.094-0.102,0.155-0.176,0.246c-0.08,0.103-0.164,0.193-0.252,0.292c-0.371,0.395-0.808,0.754-1.256,1.033
	c-0.908,0.555-1.836,0.83-2.973,0.667c-0.201-0.026-0.201-0.026-0.201-0.026c-0.229-0.057-0.525,0.294-0.66,0.785l-0.488,1.598
	c-0.169,0.478-0.193,0.939-0.051,1.025c0,0,0,0,0.139,0.073c0.906,0.459,1.974,0.751,3.061,0.778
	c1.085,0.042,2.165-0.17,3.146-0.535c0.986-0.375,1.879-0.886,2.684-1.531c0.204-0.165,0.406-0.341,0.602-0.523
	c0.199-0.19,0.418-0.426,0.597-0.642c0.37-0.438,0.67-0.889,0.933-1.343c0.513-0.905,0.869-1.813,1.134-2.722
	c0.272-0.908,0.454-1.815,0.562-2.731C131.821,51.118,131.782,49.273,131.344,47.394z"/>
<path fill="#26303A" d="M80.871,62.117c0.143-0.086,0.115-0.548-0.05-1.025l-0.49-1.598c-0.136-0.491-0.435-0.842-0.66-0.785
	c0,0,0,0-0.204,0.026c-1.136,0.163-2.063-0.112-2.969-0.667c-0.447-0.279-0.884-0.639-1.257-1.033
	c-0.093-0.102-0.174-0.194-0.25-0.292c-0.079-0.091-0.115-0.152-0.177-0.246c-0.115-0.187-0.232-0.397-0.341-0.642
	c-0.454-0.978-0.769-2.273-0.911-3.562c-0.149-1.296-0.135-2.633,0.03-3.846c0.088-0.599,0.13-0.761,0.13-0.761
	c0.14-0.488,0.258-0.902,0.265-0.923c0.005-0.019,0.015-0.041,0.018-0.051c0.01-0.013,0-0.003,0-0.003
	c-0.003,0.006-0.003,0.008-0.003,0.008l0.003-0.008c0-0.005,0.013-0.021,0.015-0.044c0.005-0.02,0.037-0.104,0.049-0.13
	c0.01-0.024,0.055-0.125,0.096-0.226c0,0,0,0,0.039-0.081c0.094-0.164,0.187-0.316,0.312-0.457c0.116-0.146,0.263-0.276,0.435-0.393
	c0.172-0.115,0.373-0.228,0.602-0.309c0.457-0.172,1.021-0.256,1.637-0.236c0.48,0.016,0.608,0.045,0.608,0.045
	c0.496,0.107,0.891-0.216,0.879-0.724l-0.027-1.301c-0.005-0.508-0.167-1.011-0.363-1.116c0,0,0,0-0.181-0.089
	c-0.901-0.409-1.932-0.67-3.036-0.653c-1.1,0.008-2.287,0.322-3.315,0.967c-1.038,0.639-1.885,1.623-2.407,2.597
	c-0.518,0.952-0.835,1.89-1.06,2.832c-0.438,1.875-0.479,3.721-0.268,5.546c0.105,0.913,0.287,1.825,0.559,2.729
	c0.266,0.912,0.621,1.817,1.134,2.723c0.261,0.455,0.56,0.903,0.933,1.346c0.18,0.213,0.396,0.451,0.594,0.642
	c0.197,0.183,0.402,0.358,0.602,0.521c0.808,0.643,1.7,1.158,2.688,1.531c0.98,0.363,2.059,0.579,3.146,0.535
	c1.087-0.029,2.154-0.319,3.06-0.78C80.871,62.117,80.871,62.117,80.871,62.117z"/>
<polygon fill="#FFFFFF" points="99.814,39.538 102.469,47.709 111.059,47.709 104.111,52.76 106.765,60.93 99.814,55.879 
	92.865,60.93 95.519,52.76 88.57,47.709 97.161,47.709 "/>
</svg>
